<svg width="247" height="22" viewBox="0 0 247 22" fill="none" xmlns="http://www.w3.org/2000/svg">
<path d="M10.5938 4.8291L4.83594 17L0.764648 17L9.05762 1.35937L11.6572 1.35937L10.5938 4.8291ZM11.582 17L9.99219 4.45312L10.0781 1.35937L12.5273 1.35937L15.417 17L11.582 17ZM12.4199 11.167L11.9043 14.0781L4.09473 14.0781L4.61035 11.167L12.4199 11.167ZM23.001 0.5L20.1436 17L16.5986 17L19.4561 0.5L23.001 0.5ZM28.8662 0.5L26.0088 17L22.4639 17L25.3213 0.5L28.8662 0.5ZM36.4502 1.35937L42.2402 1.37012C43.1927 1.38444 44.07 1.55632 44.8721 1.88574C45.6742 2.21517 46.3044 2.72005 46.7627 3.40039C47.221 4.07357 47.4144 4.93652 47.3428 5.98926C47.2783 6.85579 47.085 7.58626 46.7627 8.18066C46.4404 8.7679 46.0036 9.26921 45.4521 9.68457C44.9007 10.0999 44.2526 10.4687 43.5078 10.791L42.1758 11.4785L36.9766 11.4785L37.4707 8.56738L41.0049 8.58887C41.4775 8.58171 41.8965 8.48861 42.2617 8.30957C42.6341 8.13053 42.9385 7.8763 43.1748 7.54687C43.4111 7.21745 43.5615 6.81641 43.626 6.34375C43.6833 5.95703 43.6689 5.61328 43.583 5.3125C43.4971 5.00456 43.3324 4.76107 43.0889 4.58203C42.8454 4.40299 42.5231 4.30273 42.1221 4.28125L39.6299 4.27051L37.417 17L33.7432 17L36.4502 1.35937ZM42.1328 17L39.9736 10.082L43.7012 10.0605L46.0537 16.8174L46.0537 17L42.1328 17ZM53.2402 5.37695L51.2314 17L47.6865 17L49.7061 5.37695L53.2402 5.37695ZM50.0176 2.44434C50.0033 1.88574 50.1895 1.44173 50.5762 1.1123C50.9701 0.782878 51.432 0.614583 51.9619 0.607422C52.4704 0.60026 52.9215 0.750651 53.3154 1.05859C53.7093 1.35937 53.9098 1.77832 53.917 2.31543C53.9313 2.87402 53.7415 3.31803 53.3477 3.64746C52.9609 3.97689 52.5026 4.14518 51.9727 4.15234C51.4642 4.15951 51.013 4.0127 50.6191 3.71191C50.2324 3.40397 50.0319 2.98145 50.0176 2.44434ZM62.4355 5.37695L65.6797 5.37695L63.7783 16.5381C63.6279 17.6553 63.2484 18.5898 62.6396 19.3418C62.0381 20.1009 61.279 20.6702 60.3623 21.0498C59.4456 21.4294 58.443 21.6048 57.3545 21.5762C56.8389 21.569 56.3304 21.4974 55.8291 21.3613C55.335 21.2253 54.8659 21.0247 54.4219 20.7598C53.9779 20.502 53.584 20.1761 53.2402 19.7822L54.916 17.6982C55.224 18.085 55.582 18.3822 55.9902 18.5898C56.4056 18.7975 56.8604 18.9049 57.3545 18.9121C57.863 18.9264 58.3141 18.8369 58.708 18.6436C59.109 18.4502 59.4385 18.1745 59.6963 17.8164C59.9541 17.4583 60.1296 17.0286 60.2227 16.5273L61.6836 7.94434L62.4355 5.37695ZM53.9492 11.4033L53.9814 11.1777C54.0674 10.4473 54.2393 9.72038 54.4971 8.99707C54.7549 8.27376 55.1022 7.61849 55.5391 7.03125C55.9831 6.44401 56.5202 5.9821 57.1504 5.64551C57.7878 5.30176 58.529 5.14062 59.374 5.16211C60.1546 5.18359 60.7777 5.38411 61.2432 5.76367C61.7158 6.14323 62.0703 6.63021 62.3066 7.22461C62.543 7.81901 62.6969 8.45996 62.7686 9.14746C62.8402 9.8278 62.8652 10.4831 62.8438 11.1133L62.8223 11.3926C62.7077 12.0156 62.5179 12.6709 62.2529 13.3584C61.9951 14.0459 61.6585 14.6868 61.2432 15.2812C60.835 15.8757 60.3408 16.3555 59.7607 16.7207C59.1878 17.0788 58.529 17.2471 57.7842 17.2256C57.0036 17.2113 56.3519 17.0286 55.8291 16.6777C55.3063 16.3197 54.8945 15.8577 54.5938 15.292C54.3001 14.7191 54.1032 14.096 54.0029 13.4229C53.9027 12.7425 53.8848 12.0693 53.9492 11.4033ZM57.5156 11.1777L57.4941 11.4033C57.4655 11.6826 57.4512 11.9941 57.4512 12.3379C57.4583 12.6745 57.5049 13.0003 57.5908 13.3154C57.6768 13.6305 57.8236 13.8919 58.0313 14.0996C58.2389 14.3073 58.529 14.4183 58.9014 14.4326C59.4528 14.4613 59.9076 14.3467 60.2656 14.0889C60.6237 13.8311 60.8994 13.4909 61.0928 13.0684C61.2861 12.6387 61.4115 12.1839 61.4688 11.7041L61.5654 10.8447C61.6012 10.5225 61.6191 10.1966 61.6191 9.86719C61.6263 9.5306 61.5833 9.21908 61.4902 8.93262C61.4043 8.64616 61.2503 8.41341 61.0283 8.23437C60.8063 8.04818 60.4876 7.9515 60.0723 7.94434C59.6497 7.93001 59.2845 8.02669 58.9766 8.23437C58.6758 8.4349 58.4251 8.69987 58.2246 9.0293C58.0241 9.35872 57.8665 9.71322 57.752 10.0928C57.6374 10.4723 57.5586 10.834 57.5156 11.1777ZM71.9746 0.5L69.1064 17L65.5723 17L68.4404 0.5L71.9746 0.5ZM69.7832 10.791L69.0098 10.8232C69.0742 10.1787 69.2139 9.51986 69.4287 8.84668C69.6507 8.1735 69.9515 7.55404 70.3311 6.98828C70.7178 6.42253 71.194 5.97135 71.7598 5.63477C72.3255 5.29102 72.9915 5.12988 73.7578 5.15137C74.431 5.16569 74.986 5.30176 75.4229 5.55957C75.8669 5.81738 76.2106 6.16471 76.4541 6.60156C76.7048 7.03125 76.8695 7.52181 76.9482 8.07324C77.027 8.61751 77.0342 9.18685 76.9697 9.78125L75.7666 17L72.2109 17L73.4355 9.74902C73.4714 9.40527 73.4642 9.10091 73.4141 8.83594C73.3639 8.5638 73.2422 8.34896 73.0488 8.19141C72.8626 8.02669 72.5798 7.94076 72.2002 7.93359C71.7705 7.92643 71.4124 8.00163 71.126 8.15918C70.8395 8.31673 70.6068 8.53516 70.4277 8.81445C70.2487 9.08659 70.109 9.39453 70.0088 9.73828C69.9157 10.082 69.8405 10.4329 69.7832 10.791ZM85.6816 5.37695L85.2412 7.89062L78.4307 7.89062L78.8711 5.37695L85.6816 5.37695ZM80.7939 2.4873L84.3281 2.4873L82.4805 13.2295C82.4518 13.4801 82.4518 13.6878 82.4805 13.8525C82.5091 14.0101 82.5843 14.1318 82.7061 14.2178C82.835 14.2965 83.0319 14.3431 83.2969 14.3574C83.4473 14.3646 83.5977 14.361 83.748 14.3467C83.8984 14.3324 84.0488 14.318 84.1992 14.3037L83.9521 16.9248C83.6442 17.0251 83.3291 17.0967 83.0068 17.1396C82.6917 17.1826 82.3695 17.2041 82.04 17.2041C81.3096 17.1898 80.6973 17.043 80.2031 16.7637C79.7161 16.4772 79.3617 16.0726 79.1396 15.5498C78.9248 15.0199 78.8496 14.3896 78.9141 13.6592L80.7939 2.4873ZM91.6113 13.6699C91.6686 13.3691 91.5791 13.14 91.3428 12.9824C91.1136 12.8177 90.8379 12.696 90.5156 12.6172C90.2005 12.5312 89.9463 12.4632 89.7529 12.4131C89.3161 12.2985 88.8828 12.1517 88.4531 11.9727C88.0234 11.7865 87.6331 11.5573 87.2822 11.2852C86.9385 11.0059 86.6628 10.6729 86.4551 10.2861C86.2546 9.89225 86.165 9.43392 86.1865 8.91113C86.208 8.2666 86.3691 7.70801 86.6699 7.23535C86.9779 6.7627 87.3753 6.3724 87.8623 6.06445C88.3493 5.74935 88.8792 5.5166 89.4521 5.36621C90.0322 5.21582 90.6087 5.14779 91.1816 5.16211C91.9694 5.16927 92.7106 5.30892 93.4053 5.58105C94.1071 5.85319 94.6764 6.26855 95.1133 6.82715C95.5573 7.38574 95.7829 8.09473 95.79 8.9541L92.2773 8.94336C92.2845 8.66406 92.2487 8.42057 92.1699 8.21289C92.0983 8.00521 91.973 7.84766 91.7939 7.74023C91.6149 7.62565 91.3714 7.56836 91.0635 7.56836C90.8343 7.56836 90.6087 7.61491 90.3867 7.70801C90.1647 7.80111 89.9714 7.93359 89.8066 8.10547C89.6491 8.27734 89.5488 8.48503 89.5059 8.72852C89.4629 8.9362 89.4915 9.11165 89.5918 9.25488C89.6921 9.39095 89.8281 9.50195 90 9.58789C90.1719 9.67383 90.3509 9.74544 90.5371 9.80273C90.7305 9.85286 90.9023 9.89225 91.0527 9.9209C91.7044 10.0785 92.3346 10.2897 92.9434 10.5547C93.5592 10.8125 94.0605 11.1813 94.4473 11.6611C94.8411 12.1338 95.0273 12.764 95.0059 13.5518C94.9844 14.2178 94.8053 14.7871 94.4688 15.2598C94.1322 15.7253 93.6989 16.1048 93.1689 16.3984C92.6462 16.6849 92.0804 16.8926 91.4717 17.0215C90.8701 17.1576 90.2865 17.222 89.7207 17.2148C88.9329 17.2005 88.1882 17.043 87.4863 16.7422C86.7845 16.4342 86.2116 15.9902 85.7676 15.4102C85.3307 14.8229 85.1016 14.1032 85.0801 13.251L88.3457 13.2617C88.3529 13.5983 88.4137 13.8812 88.5283 14.1104C88.6501 14.3324 88.8255 14.5042 89.0547 14.626C89.2839 14.7406 89.5667 14.7979 89.9033 14.7979C90.154 14.7979 90.3975 14.762 90.6338 14.6904C90.8773 14.6117 91.085 14.4899 91.2568 14.3252C91.4359 14.1533 91.554 13.9349 91.6113 13.6699ZM104.319 1.35937L110.109 1.37012C111.062 1.38444 111.939 1.55632 112.741 1.88574C113.543 2.21517 114.174 2.72005 114.632 3.40039C115.09 4.07357 115.284 4.93652 115.212 5.98926C115.147 6.85579 114.954 7.58626 114.632 8.18066C114.31 8.7679 113.873 9.26921 113.321 9.68457C112.77 10.0999 112.122 10.4687 111.377 10.791L110.045 11.4785L104.846 11.4785L105.34 8.56738L108.874 8.58887C109.347 8.58171 109.766 8.48861 110.131 8.30957C110.503 8.13053 110.808 7.8763 111.044 7.54687C111.28 7.21745 111.431 6.81641 111.495 6.34375C111.552 5.95703 111.538 5.61328 111.452 5.3125C111.366 5.00456 111.201 4.76107 110.958 4.58203C110.715 4.40299 110.392 4.30273 109.991 4.28125L107.499 4.27051L105.286 17L101.612 17L104.319 1.35937ZM110.002 17L107.843 10.082L111.57 10.0605L113.923 16.8174L113.923 17L110.002 17ZM121.12 17.2148C120.318 17.2005 119.588 17.0537 118.929 16.7744C118.27 16.488 117.711 16.0941 117.253 15.5928C116.795 15.0915 116.454 14.5042 116.232 13.8311C116.018 13.1507 115.939 12.4095 115.996 11.6074L116.039 11.1885C116.125 10.3434 116.326 9.55566 116.641 8.8252C116.956 8.08757 117.378 7.44303 117.908 6.8916C118.438 6.33301 119.061 5.89974 119.777 5.5918C120.501 5.28385 121.31 5.14062 122.205 5.16211C123.014 5.17643 123.713 5.33757 124.3 5.64551C124.894 5.95345 125.378 6.3724 125.75 6.90234C126.122 7.42513 126.38 8.02669 126.523 8.70703C126.674 9.38021 126.71 10.0964 126.631 10.8555L126.427 12.3271L117.188 12.3271L117.554 10.0605L123.247 10.0713L123.312 9.75977C123.362 9.42318 123.347 9.11882 123.269 8.84668C123.19 8.57454 123.043 8.3597 122.828 8.20215C122.613 8.03743 122.323 7.94792 121.958 7.93359C121.514 7.92643 121.145 8.02311 120.852 8.22363C120.565 8.42415 120.332 8.68913 120.153 9.01855C119.981 9.34798 119.849 9.70605 119.756 10.0928C119.663 10.4723 119.595 10.8376 119.552 11.1885L119.509 11.5967C119.48 11.9476 119.491 12.2878 119.541 12.6172C119.591 12.9466 119.691 13.2438 119.842 13.5088C119.999 13.7738 120.211 13.9886 120.476 14.1533C120.741 14.3109 121.074 14.3968 121.475 14.4111C122.012 14.4255 122.513 14.3252 122.979 14.1104C123.444 13.8955 123.863 13.6019 124.235 13.2295L125.707 15.1846C125.385 15.6715 124.969 16.0654 124.461 16.3662C123.952 16.6598 123.405 16.8747 122.817 17.0107C122.237 17.154 121.672 17.222 121.12 17.2148ZM133.57 13.6699C133.628 13.3691 133.538 13.14 133.302 12.9824C133.073 12.8177 132.797 12.696 132.475 12.6172C132.16 12.5312 131.905 12.4632 131.712 12.4131C131.275 12.2985 130.842 12.1517 130.412 11.9727C129.982 11.7865 129.592 11.5573 129.241 11.2852C128.897 11.0059 128.622 10.6729 128.414 10.2861C128.214 9.89225 128.124 9.43392 128.146 8.91113C128.167 8.2666 128.328 7.70801 128.629 7.23535C128.937 6.7627 129.334 6.3724 129.821 6.06445C130.308 5.74935 130.838 5.5166 131.411 5.36621C131.991 5.21582 132.568 5.14779 133.141 5.16211C133.928 5.16927 134.67 5.30892 135.364 5.58105C136.066 5.85319 136.635 6.26855 137.072 6.82715C137.516 7.38574 137.742 8.09473 137.749 8.9541L134.236 8.94336C134.243 8.66406 134.208 8.42057 134.129 8.21289C134.057 8.00521 133.932 7.84766 133.753 7.74023C133.574 7.62565 133.33 7.56836 133.022 7.56836C132.793 7.56836 132.568 7.61491 132.346 7.70801C132.124 7.80111 131.93 7.93359 131.766 8.10547C131.608 8.27734 131.508 8.48503 131.465 8.72852C131.422 8.9362 131.451 9.11165 131.551 9.25488C131.651 9.39095 131.787 9.50195 131.959 9.58789C132.131 9.67383 132.31 9.74544 132.496 9.80273C132.689 9.85286 132.861 9.89225 133.012 9.9209C133.663 10.0785 134.294 10.2897 134.902 10.5547C135.518 10.8125 136.02 11.1813 136.406 11.6611C136.8 12.1338 136.986 12.764 136.965 13.5518C136.943 14.2178 136.764 14.7871 136.428 15.2598C136.091 15.7253 135.658 16.1048 135.128 16.3984C134.605 16.6849 134.039 16.8926 133.431 17.0215C132.829 17.1576 132.245 17.222 131.68 17.2148C130.892 17.2005 130.147 17.043 129.445 16.7422C128.743 16.4342 128.171 15.9902 127.727 15.4102C127.29 14.8229 127.061 14.1032 127.039 13.251L130.305 13.2617C130.312 13.5983 130.373 13.8812 130.487 14.1104C130.609 14.3324 130.785 14.5042 131.014 14.626C131.243 14.7406 131.526 14.7979 131.862 14.7979C132.113 14.7979 132.356 14.762 132.593 14.6904C132.836 14.6117 133.044 14.4899 133.216 14.3252C133.395 14.1533 133.513 13.9349 133.57 13.6699ZM143.722 17.2148C142.92 17.2005 142.189 17.0537 141.53 16.7744C140.871 16.488 140.313 16.0941 139.854 15.5928C139.396 15.0915 139.056 14.5042 138.834 13.8311C138.619 13.1507 138.54 12.4095 138.598 11.6074L138.641 11.1885C138.727 10.3434 138.927 9.55566 139.242 8.8252C139.557 8.08757 139.98 7.44303 140.51 6.8916C141.04 6.33301 141.663 5.89974 142.379 5.5918C143.102 5.28385 143.911 5.14062 144.807 5.16211C145.616 5.17643 146.314 5.33757 146.901 5.64551C147.496 5.95345 147.979 6.3724 148.352 6.90234C148.724 7.42513 148.982 8.02669 149.125 8.70703C149.275 9.38021 149.311 10.0964 149.232 10.8555L149.028 12.3271L139.79 12.3271L140.155 10.0605L145.849 10.0713L145.913 9.75977C145.963 9.42318 145.949 9.11882 145.87 8.84668C145.791 8.57454 145.645 8.3597 145.43 8.20215C145.215 8.03743 144.925 7.94792 144.56 7.93359C144.116 7.92643 143.747 8.02311 143.453 8.22363C143.167 8.42415 142.934 8.68913 142.755 9.01855C142.583 9.34798 142.451 9.70605 142.357 10.0928C142.264 10.4723 142.196 10.8376 142.153 11.1885L142.11 11.5967C142.082 11.9476 142.092 12.2878 142.143 12.6172C142.193 12.9466 142.293 13.2438 142.443 13.5088C142.601 13.7738 142.812 13.9886 143.077 14.1533C143.342 14.3109 143.675 14.3968 144.076 14.4111C144.613 14.4255 145.115 14.3252 145.58 14.1104C146.046 13.8955 146.465 13.6019 146.837 13.2295L148.309 15.1846C147.986 15.6715 147.571 16.0654 147.063 16.3662C146.554 16.6598 146.006 16.8747 145.419 17.0107C144.839 17.154 144.273 17.222 143.722 17.2148ZM154.657 8.44922L153.175 17L149.641 17L151.66 5.37695L154.947 5.37695L154.657 8.44922ZM158.46 5.28027L157.998 8.65332C157.812 8.62467 157.626 8.59961 157.439 8.57812C157.253 8.55664 157.063 8.54232 156.87 8.53516C156.476 8.52799 156.118 8.57454 155.796 8.6748C155.481 8.7679 155.205 8.91471 154.969 9.11523C154.74 9.30859 154.55 9.55208 154.399 9.8457C154.249 10.1393 154.138 10.4795 154.066 10.8662L153.476 10.4365C153.547 9.89225 153.662 9.31576 153.819 8.70703C153.984 8.09115 154.213 7.51107 154.507 6.9668C154.8 6.42253 155.18 5.9821 155.646 5.64551C156.111 5.30176 156.684 5.12988 157.364 5.12988C157.55 5.12988 157.733 5.14421 157.912 5.17285C158.091 5.2015 158.274 5.2373 158.46 5.28027ZM162.478 14.3789L166.076 5.37695L169.89 5.37695L164.379 17L162.134 17L162.478 14.3789ZM162.563 5.37695L163.337 14.6904L162.95 17L160.791 17L158.922 5.37695L162.563 5.37695ZM174.53 17.2148C173.728 17.2005 172.998 17.0537 172.339 16.7744C171.68 16.488 171.121 16.0941 170.663 15.5928C170.205 15.0915 169.865 14.5042 169.643 13.8311C169.428 13.1507 169.349 12.4095 169.406 11.6074L169.449 11.1885C169.535 10.3434 169.736 9.55566 170.051 8.8252C170.366 8.08757 170.788 7.44303 171.318 6.8916C171.848 6.33301 172.471 5.89974 173.188 5.5918C173.911 5.28385 174.72 5.14062 175.615 5.16211C176.424 5.17643 177.123 5.33757 177.71 5.64551C178.304 5.95345 178.788 6.3724 179.16 6.90234C179.533 7.42513 179.79 8.02669 179.934 8.70703C180.084 9.38021 180.12 10.0964 180.041 10.8555L179.837 12.3271L170.599 12.3271L170.964 10.0605L176.657 10.0713L176.722 9.75977C176.772 9.42318 176.757 9.11882 176.679 8.84668C176.6 8.57454 176.453 8.3597 176.238 8.20215C176.023 8.03743 175.733 7.94792 175.368 7.93359C174.924 7.92643 174.555 8.02311 174.262 8.22363C173.975 8.42415 173.743 8.68913 173.563 9.01855C173.392 9.34798 173.259 9.70605 173.166 10.0928C173.073 10.4723 173.005 10.8376 172.962 11.1885L172.919 11.5967C172.89 11.9476 172.901 12.2878 172.951 12.6172C173.001 12.9466 173.102 13.2438 173.252 13.5088C173.41 13.7738 173.621 13.9886 173.886 14.1533C174.151 14.3109 174.484 14.3968 174.885 14.4111C175.422 14.4255 175.923 14.3252 176.389 14.1104C176.854 13.8955 177.273 13.6019 177.646 13.2295L179.117 15.1846C178.795 15.6715 178.38 16.0654 177.871 16.3662C177.363 16.6598 176.815 16.8747 176.228 17.0107C175.647 17.154 175.082 17.222 174.53 17.2148ZM187.399 14.1318L189.763 0.5L193.318 0.5L190.461 17L187.292 17L187.399 14.1318ZM180.976 11.4141L180.997 11.1777C181.083 10.4687 181.244 9.7526 181.48 9.0293C181.717 8.30599 182.039 7.64714 182.447 7.05273C182.863 6.45833 183.375 5.98568 183.983 5.63477C184.599 5.28385 185.33 5.12272 186.175 5.15137C186.891 5.18001 187.478 5.39486 187.937 5.7959C188.395 6.19694 188.749 6.7054 189 7.32129C189.251 7.93001 189.423 8.57096 189.516 9.24414C189.609 9.91732 189.648 10.5368 189.634 11.1025L189.602 11.3926C189.494 12.0013 189.308 12.6494 189.043 13.3369C188.785 14.0173 188.445 14.6582 188.022 15.2598C187.607 15.8542 187.113 16.3376 186.54 16.71C185.967 17.0752 185.319 17.2471 184.596 17.2256C183.808 17.2041 183.163 17.0143 182.662 16.6562C182.161 16.2982 181.774 15.8327 181.502 15.2598C181.237 14.6868 181.065 14.0638 180.986 13.3906C180.915 12.7174 180.911 12.0586 180.976 11.4141ZM184.542 11.167L184.521 11.3926C184.499 11.6504 184.481 11.9476 184.467 12.2842C184.452 12.6208 184.47 12.9502 184.521 13.2725C184.578 13.5947 184.696 13.8669 184.875 14.0889C185.061 14.3037 185.337 14.4219 185.702 14.4434C186.232 14.4648 186.665 14.3395 187.002 14.0674C187.346 13.7952 187.607 13.4479 187.786 13.0254C187.972 12.5957 188.09 12.1553 188.141 11.7041L188.237 10.8447C188.273 10.5511 188.291 10.2396 188.291 9.91016C188.298 9.58073 188.262 9.26921 188.184 8.97559C188.105 8.68197 187.962 8.43848 187.754 8.24512C187.546 8.05176 187.245 7.9515 186.852 7.94434C186.436 7.93001 186.085 8.02669 185.799 8.23437C185.52 8.44206 185.294 8.71419 185.122 9.05078C184.957 9.38021 184.828 9.7347 184.735 10.1143C184.649 10.4867 184.585 10.8376 184.542 11.167ZM208.97 14.207L208.529 17L197.927 17L198.313 14.5078L203.878 9.34082C204.179 9.0472 204.501 8.71777 204.845 8.35254C205.188 7.9873 205.493 7.59701 205.758 7.18164C206.03 6.75911 206.198 6.32943 206.263 5.89258C206.306 5.56315 206.299 5.24805 206.241 4.94727C206.191 4.64648 206.066 4.39941 205.865 4.20605C205.672 4.00553 205.382 3.90169 204.995 3.89453C204.551 3.88021 204.179 4.00195 203.878 4.25977C203.584 4.51758 203.355 4.83984 203.19 5.22656C203.033 5.61328 202.929 5.99642 202.879 6.37598L199.366 6.39746C199.416 5.35905 199.721 4.44238 200.279 3.64746C200.845 2.85254 201.565 2.22949 202.438 1.77832C203.319 1.32715 204.268 1.10872 205.285 1.12305C206.209 1.13737 207.033 1.31283 207.756 1.64941C208.486 1.986 209.049 2.48372 209.442 3.14258C209.836 3.80143 209.994 4.62142 209.915 5.60254C209.858 6.28288 209.679 6.91309 209.378 7.49316C209.084 8.07324 208.715 8.61751 208.271 9.12598C207.835 9.62728 207.366 10.1071 206.864 10.5654C206.37 11.0166 205.894 11.457 205.436 11.8867L203.062 14.1855L208.97 14.207ZM222.312 7.75098L221.871 10.5977C221.749 11.457 221.538 12.2878 221.237 13.0898C220.937 13.8848 220.535 14.5973 220.034 15.2275C219.54 15.8577 218.931 16.3519 218.208 16.71C217.492 17.068 216.643 17.2363 215.662 17.2148C214.917 17.2005 214.276 17.068 213.739 16.8174C213.202 16.5596 212.755 16.2158 212.396 15.7861C212.046 15.3564 211.773 14.8623 211.58 14.3037C211.394 13.7451 211.279 13.1507 211.236 12.5205C211.193 11.8903 211.211 11.2529 211.29 10.6084L211.72 7.75098C211.849 6.8916 212.063 6.06445 212.364 5.26953C212.665 4.46745 213.066 3.7513 213.567 3.12109C214.069 2.49089 214.681 2.00033 215.404 1.64941C216.128 1.29134 216.976 1.12305 217.95 1.14453C218.695 1.15885 219.336 1.29492 219.873 1.55273C220.41 1.80339 220.854 2.14355 221.205 2.57324C221.556 3.00293 221.825 3.49707 222.011 4.05566C222.204 4.61426 222.322 5.20866 222.365 5.83887C222.408 6.46908 222.39 7.10645 222.312 7.75098ZM218.294 11.0596L218.853 7.26758C218.874 7.05273 218.899 6.80566 218.928 6.52637C218.956 6.24707 218.964 5.96061 218.949 5.66699C218.942 5.36621 218.899 5.08691 218.82 4.8291C218.749 4.57129 218.623 4.36003 218.444 4.19531C218.272 4.02344 218.029 3.93034 217.714 3.91602C217.27 3.89453 216.901 3.99121 216.607 4.20605C216.321 4.4209 216.092 4.70736 215.92 5.06543C215.748 5.41634 215.616 5.79232 215.522 6.19336C215.437 6.58724 215.368 6.94889 215.318 7.27832L214.76 11.0596C214.738 11.2744 214.713 11.5251 214.685 11.8115C214.656 12.0908 214.645 12.3809 214.652 12.6816C214.66 12.9824 214.699 13.2617 214.771 13.5195C214.849 13.7773 214.978 13.9922 215.157 14.1641C215.336 14.3288 215.583 14.4219 215.898 14.4434C216.342 14.4648 216.708 14.3682 216.994 14.1533C217.288 13.9313 217.521 13.6449 217.692 13.2939C217.864 12.9359 217.993 12.5563 218.079 12.1553C218.172 11.7542 218.244 11.389 218.294 11.0596ZM233.72 14.207L233.279 17L222.677 17L223.063 14.5078L228.628 9.34082C228.929 9.0472 229.251 8.71777 229.595 8.35254C229.938 7.9873 230.243 7.59701 230.508 7.18164C230.78 6.75911 230.948 6.32943 231.013 5.89258C231.056 5.56315 231.049 5.24805 230.991 4.94727C230.941 4.64648 230.816 4.39941 230.615 4.20605C230.422 4.00553 230.132 3.90169 229.745 3.89453C229.301 3.88021 228.929 4.00195 228.628 4.25977C228.334 4.51758 228.105 4.83984 227.94 5.22656C227.783 5.61328 227.679 5.99642 227.629 6.37598L224.116 6.39746C224.166 5.35905 224.471 4.44238 225.029 3.64746C225.595 2.85254 226.315 2.22949 227.188 1.77832C228.069 1.32715 229.018 1.10872 230.035 1.12305C230.959 1.13737 231.783 1.31283 232.506 1.64941C233.236 1.986 233.799 2.48372 234.192 3.14258C234.586 3.80143 234.744 4.62142 234.665 5.60254C234.608 6.28288 234.429 6.91309 234.128 7.49316C233.834 8.07324 233.465 8.61751 233.021 9.12598C232.585 9.62728 232.116 10.1071 231.614 10.5654C231.12 11.0166 230.644 11.457 230.186 11.8867L227.812 14.1855L233.72 14.207ZM246.825 10.8877L246.342 13.6807L235.417 13.6807L235.61 11.2959L243.323 1.35937L246.32 1.35937L242.324 6.58008L239.091 10.8662L246.825 10.8877ZM246.943 1.35937L244.236 17L240.702 17L243.409 1.35937L246.943 1.35937Z" fill="#1E344F" fill-opacity="0.5"/>
</svg>
