<svg width="1369" height="532" viewBox="0 0 1369 532" fill="none" xmlns="http://www.w3.org/2000/svg">
<path d="M93.0711 169C128.97 169 158.071 139.899 158.071 104V65C158.071 29.1015 187.173 0 223.071 0H1304C1339.9 0 1369 29.1015 1369 65V467C1369 502.898 1339.9 532 1304 532H1038C1013.7 532 993.997 512.301 993.997 488C993.997 463.699 974.297 444 949.997 444H415.206C390.905 444 371.206 463.699 371.206 488C371.206 512.301 351.506 532 327.206 532H65C29.1015 532 -4.76837e-07 502.898 -4.76837e-07 467V234C-4.76837e-07 198.102 29.1015 169 65 169H93.0711Z" fill="#EFE4FC"/>
</svg>
