<svg width="128" height="32" viewBox="0 0 128 32" fill="none" xmlns="http://www.w3.org/2000/svg">
<rect width="125.562" height="32" rx="7" fill="#E7EEFA"/>
<path d="M25.9374 12.0469L24.2147 22L21.87 22L23.5995 12.0469L25.9374 12.0469ZM28.8427 12.0469L28.5214 13.8994L20.4344 13.8994L20.7626 12.0469L28.8427 12.0469ZM29.8202 12.0469L33.5048 12.0537C34.1109 12.0628 34.6691 12.1722 35.1796 12.3818C35.69 12.5915 36.091 12.9128 36.3827 13.3457C36.6744 13.7741 36.7974 14.3232 36.7518 14.9932C36.7108 15.5446 36.5878 16.0094 36.3827 16.3877C36.1776 16.7614 35.8996 17.0804 35.5487 17.3447C35.1978 17.609 34.7854 17.8437 34.3114 18.0488L33.4637 18.4863L30.1552 18.4863L30.4696 16.6338L32.7186 16.6475C33.0194 16.6429 33.286 16.5837 33.5184 16.4697C33.7554 16.3558 33.9491 16.194 34.0995 15.9844C34.2499 15.7747 34.3456 15.5195 34.3866 15.2187C34.4231 14.9727 34.4139 14.7539 34.3593 14.5625C34.3046 14.3665 34.1997 14.2116 34.0448 14.0977C33.8899 13.9837 33.6848 13.9199 33.4296 13.9062L31.8436 13.8994L30.4354 22L28.0975 22L29.8202 12.0469ZM33.4364 22L32.0624 17.5977L34.4344 17.584L35.9315 21.8838L35.9315 22L33.4364 22ZM42.4052 14.2549L38.7411 22L36.1503 22L41.4276 12.0469L43.0819 12.0469L42.4052 14.2549ZM43.0341 22L42.0223 14.0156L42.077 12.0469L43.6356 12.0469L45.4745 22L43.0341 22ZM43.5673 18.2881L43.2391 20.1406L38.2694 20.1406L38.5975 18.2881L43.5673 18.2881ZM56.0155 12.0469L54.286 22L52.0165 22L49.6444 15.7178L48.5507 22L46.2128 22L47.9354 12.0469L50.2186 12.0469L52.5907 18.3291L53.6776 12.0469L56.0155 12.0469ZM61.1971 19.3066C61.2382 19.0924 61.2222 18.9102 61.1493 18.7598C61.0809 18.6094 60.9761 18.4818 60.8348 18.377C60.6981 18.2721 60.5409 18.1833 60.3632 18.1104C60.19 18.0329 60.0214 17.9622 59.8573 17.8984C59.5018 17.7572 59.1509 17.5977 58.8046 17.4199C58.4582 17.2376 58.1438 17.0234 57.8612 16.7773C57.5787 16.5312 57.3576 16.2441 57.1981 15.916C57.0432 15.5879 56.9771 15.2028 56.9999 14.7607C57.0318 14.2549 57.1753 13.8197 57.4305 13.4551C57.6858 13.0905 58.0116 12.7943 58.4081 12.5664C58.8091 12.334 59.2398 12.1654 59.7001 12.0605C60.1649 11.9512 60.6184 11.901 61.0604 11.9102C61.6893 11.9193 62.2499 12.0469 62.7421 12.293C63.2388 12.5391 63.6285 12.8923 63.911 13.3525C64.1936 13.8083 64.3303 14.3597 64.3212 15.0068L62.0038 15.0068C62.0129 14.7516 61.9787 14.5306 61.9012 14.3437C61.8283 14.1523 61.7076 14.0042 61.5389 13.8994C61.3703 13.79 61.1516 13.7331 60.8827 13.7285C60.6594 13.724 60.4361 13.7604 60.2128 13.8379C59.9895 13.9108 59.7958 14.0247 59.6317 14.1797C59.4677 14.3346 59.3628 14.5352 59.3173 14.7812C59.2854 14.9681 59.315 15.1322 59.4061 15.2734C59.4973 15.4102 59.6226 15.5286 59.7821 15.6289C59.9416 15.7246 60.108 15.8066 60.2811 15.875C60.4589 15.9434 60.6138 16.0026 60.746 16.0527C61.1197 16.194 61.4774 16.3604 61.8192 16.5518C62.1656 16.7386 62.4709 16.9596 62.7352 17.2148C63.0041 17.4701 63.2092 17.7686 63.3505 18.1104C63.4963 18.4476 63.5555 18.8395 63.5282 19.2861C63.4917 19.8011 63.355 20.2409 63.118 20.6055C62.8811 20.9701 62.5757 21.2663 62.202 21.4941C61.8283 21.722 61.4182 21.8883 60.9716 21.9932C60.5249 22.098 60.0715 22.1481 59.6112 22.1436C59.0962 22.1344 58.6154 22.057 58.1688 21.9111C57.7222 21.7607 57.3326 21.5443 56.9999 21.2617C56.6672 20.9746 56.4097 20.6237 56.2274 20.209C56.0451 19.7897 55.9585 19.3089 55.9677 18.7666L58.3124 18.7734C58.2987 19.0286 58.3147 19.2542 58.3602 19.4502C58.4104 19.6416 58.4924 19.8034 58.6063 19.9355C58.7248 20.0632 58.8775 20.1611 59.0643 20.2295C59.2512 20.2933 59.4768 20.3252 59.7411 20.3252C59.9644 20.3252 60.1786 20.291 60.3837 20.2227C60.5933 20.1497 60.771 20.0381 60.9169 19.8877C61.0627 19.7373 61.1561 19.5436 61.1971 19.3066ZM68.327 12.0469L66.5975 22L64.2596 22L65.9823 12.0469L68.327 12.0469ZM71.3622 16.1895L71.0409 18.0352L66.6112 18.0352L66.9325 16.1895L71.3622 16.1895ZM72.4559 12.0469L72.1346 13.8994L67.3221 13.8994L67.6503 12.0469L72.4559 12.0469ZM80.7479 16.7842L80.7001 17.1875C80.6089 17.8392 80.4335 18.4658 80.1737 19.0674C79.9185 19.6644 79.5813 20.1953 79.162 20.6602C78.7473 21.125 78.2551 21.4919 77.6854 21.7607C77.1158 22.0251 76.4755 22.1504 75.7645 22.1367C75.0809 22.123 74.4976 21.9772 74.0145 21.6992C73.536 21.4212 73.1532 21.0498 72.8661 20.585C72.5835 20.1201 72.3921 19.5983 72.2919 19.0195C72.1916 18.4408 72.1779 17.8437 72.2509 17.2285L72.2987 16.8252C72.3899 16.1781 72.5653 15.5583 72.8251 14.9658C73.0848 14.3688 73.4244 13.8379 73.8436 13.373C74.2629 12.9082 74.7574 12.5459 75.327 12.2861C75.8967 12.0218 76.5347 11.8965 77.2411 11.9102C77.9201 11.9193 78.4989 12.0628 78.9774 12.3408C79.4559 12.6188 79.8365 12.9902 80.119 13.4551C80.4061 13.9154 80.5998 14.4349 80.7001 15.0137C80.8049 15.5879 80.8208 16.1781 80.7479 16.7842ZM78.3212 17.2285L78.3759 16.8047C78.4078 16.5358 78.4283 16.2327 78.4374 15.8955C78.4465 15.5583 78.4169 15.2324 78.3485 14.918C78.2802 14.599 78.148 14.3346 77.952 14.125C77.7606 13.9154 77.4781 13.8014 77.1044 13.7832C76.6897 13.765 76.3387 13.8493 76.0516 14.0361C75.7645 14.2184 75.5275 14.4645 75.3407 14.7744C75.1584 15.0798 75.0149 15.4124 74.91 15.7725C74.8052 16.1325 74.73 16.4788 74.6844 16.8115L74.6298 17.2354C74.5979 17.5042 74.5751 17.8096 74.5614 18.1514C74.5523 18.4886 74.5796 18.8167 74.6434 19.1357C74.7118 19.4548 74.844 19.7214 75.0399 19.9355C75.2359 20.1452 75.523 20.2568 75.9012 20.2705C76.3068 20.2887 76.6532 20.2044 76.9403 20.0176C77.2274 19.8262 77.4644 19.5755 77.6512 19.2656C77.8427 18.9557 77.9908 18.6208 78.0956 18.2607C78.205 17.9007 78.2802 17.5566 78.3212 17.2285ZM82.785 12.0469L86.4696 12.0537C87.0757 12.0628 87.634 12.1722 88.1444 12.3818C88.6548 12.5915 89.0559 12.9128 89.3475 13.3457C89.6392 13.7741 89.7622 14.3232 89.7167 14.9932C89.6757 15.5446 89.5526 16.0094 89.3475 16.3877C89.1425 16.7614 88.8645 17.0804 88.5135 17.3447C88.1626 17.609 87.7502 17.8437 87.2762 18.0488L86.4286 18.4863L83.12 18.4863L83.4344 16.6338L85.6835 16.6475C85.9843 16.6429 86.2509 16.5837 86.4833 16.4697C86.7203 16.3558 86.9139 16.194 87.0643 15.9844C87.2147 15.7747 87.3104 15.5195 87.3514 15.2187C87.3879 14.9727 87.3788 14.7539 87.3241 14.5625C87.2694 14.3665 87.1646 14.2116 87.0096 14.0977C86.8547 13.9837 86.6496 13.9199 86.3944 13.9062L84.8085 13.8994L83.4003 22L81.0624 22L82.785 12.0469ZM86.4012 22L85.0272 17.5977L87.3993 17.584L88.8964 21.8838L88.8964 22L86.4012 22ZM92.8407 12.0469L94.6727 12.0469L95.6229 18.9512L98.9725 12.0469L100.955 12.0469L95.951 22L94.3993 22L92.8407 12.0469ZM91.6444 12.0469L93.62 12.0469L92.6493 19.7783L92.2596 22L89.9218 22L91.6444 12.0469ZM100.087 12.0469L102.076 12.0469L100.353 22L98.0018 22L98.4257 19.5801L100.087 12.0469Z" fill="#2B2727"/>
</svg>
